<svg xmlns="http://www.w3.org/2000/svg" width="22" height="22.021" viewBox="0 0 22 22.021">
  <g id="Groupe_16" data-name="Groupe 16" transform="translate(-1199 -12.761)">
    <path id="Tracé_22" data-name="Tracé 22" d="M1206.878,30.506c0,.771,0,1.542,0,2.313a1.848,1.848,0,0,1-1.941,1.938,20.24,20.24,0,0,1-2.311-.032,3.093,3.093,0,0,1-2.7-2.365,30.274,30.274,0,0,1-.79-4.547A27.974,27.974,0,0,1,1199,24.89c.015-1.3.1-2.6.211-3.895a3.052,3.052,0,0,1,1.4-2.292q3.95-2.737,7.913-5.453a2.576,2.576,0,0,1,3.054.024q3.883,2.674,7.767,5.346a3.233,3.233,0,0,1,1.489,2.216,15.472,15.472,0,0,1,.116,1.586,36.533,36.533,0,0,1-.1,5.156,33.834,33.834,0,0,1-.82,4.855,3.191,3.191,0,0,1-2.641,2.285,11.545,11.545,0,0,1-2.409,0,1.754,1.754,0,0,1-1.552-1.766c-.008-1.576,0-3.152-.005-4.728a2.025,2.025,0,0,0-1.434-2,2.149,2.149,0,0,0-.608-.088c-.822,0-1.644,0-2.467,0a2,2,0,0,0-2.038,2.032c-.006.779,0,1.559,0,2.338Z"/>
  </g>
</svg>
