<svg xmlns="http://www.w3.org/2000/svg" width="89" height="35.278" viewBox="0 0 89 35.278">
  <g id="Groupe_15" data-name="Groupe 15" transform="translate(-1265.988 -5.608)">
    <g id="Groupe_14" data-name="Groupe 14">
      <path id="Tracé_12" data-name="Tracé 12" d="M1323.3,11.376v4.407a1.813,1.813,0,0,1-.128.776.877.877,0,0,1-1.483,0,1.813,1.813,0,0,1-.128-.776V11.631a1.931,1.931,0,0,0-.482-1.436,1.718,1.718,0,0,0-1.257-.473,1.82,1.82,0,0,0-1.274.469,1.737,1.737,0,0,0-.516,1.355v4.237a1.813,1.813,0,0,1-.128.776.877.877,0,0,1-1.483,0,1.8,1.8,0,0,1-.128-.776V11.631a1.931,1.931,0,0,0-.482-1.436,1.718,1.718,0,0,0-1.257-.473,1.784,1.784,0,0,0-1.287.482,1.884,1.884,0,0,0-.5,1.427v4.152a1.813,1.813,0,0,1-.128.776.877.877,0,0,1-1.483,0,1.8,1.8,0,0,1-.128-.776v-6.4a1.679,1.679,0,0,1,.153-.827.786.786,0,0,1,.716-.367.808.808,0,0,1,.708.341,1.088,1.088,0,0,1,.153.572,3,3,0,0,1,1.027-.7,3.211,3.211,0,0,1,1.249-.248,2.744,2.744,0,0,1,2.455,1.262,3.332,3.332,0,0,1,2.711-1.262,3,3,0,0,1,2.182.785A3.24,3.24,0,0,1,1323.3,11.376Z"/>
      <path id="Tracé_13" data-name="Tracé 13" d="M1325.536,12.578a4.884,4.884,0,0,1,.989-3.265,3.7,3.7,0,0,1,5.315-.069,4.265,4.265,0,0,1,1.019,2.839,1.006,1.006,0,0,1-.239.776,1.065,1.065,0,0,1-.767.222h-4.595a2.6,2.6,0,0,0,.576,1.781,2.063,2.063,0,0,0,1.641.657,2.576,2.576,0,0,0,1.662-.546,1.181,1.181,0,0,1,.708-.315.678.678,0,0,1,.494.226.714.714,0,0,1,.222.515q0,.495-.87,1.049a4.07,4.07,0,0,1-2.259.554,4.655,4.655,0,0,1-1.526-.235,3.447,3.447,0,0,1-1.227-.737,3.261,3.261,0,0,1-.844-1.381A6.448,6.448,0,0,1,1325.536,12.578Zm5.61-.708a3.56,3.56,0,0,0-.239-1.176,1.81,1.81,0,0,0-.665-.8,1.838,1.838,0,0,0-1.04-.294,1.874,1.874,0,0,0-1.053.294,1.8,1.8,0,0,0-.669.8,3.174,3.174,0,0,0-.222,1.176Z"/>
      <path id="Tracé_14" data-name="Tracé 14" d="M1335.5,14.5V9.585h-.4a1.33,1.33,0,0,1-.6-.1.669.669,0,0,1,0-1.125,1.33,1.33,0,0,1,.6-.1h.4V6.9a1.814,1.814,0,0,1,.128-.776.878.878,0,0,1,1.484,0,1.818,1.818,0,0,1,.127.776V8.256h.938a1.332,1.332,0,0,1,.6.1.669.669,0,0,1,0,1.125,1.332,1.332,0,0,1-.6.1h-.938v4.842q0,.972.878,1a1.532,1.532,0,0,1,.631.119.645.645,0,0,1,.35.614.637.637,0,0,1-.35.6,1.555,1.555,0,0,1-.733.137h-.17a2.443,2.443,0,0,1-1.326-.341,2,2,0,0,1-.78-.866A2.841,2.841,0,0,1,1335.5,14.5Z"/>
      <path id="Tracé_15" data-name="Tracé 15" d="M1342.866,9.159a2.688,2.688,0,0,1,.955-.733,2.885,2.885,0,0,1,1.245-.273,2.669,2.669,0,0,1,1.517.4.955.955,0,0,1,.52.784.855.855,0,0,1-.256.631.81.81,0,0,1-.6.239,1.436,1.436,0,0,1-.674-.23,1.9,1.9,0,0,0-.937-.256,1.669,1.669,0,0,0-1.262.528,1.955,1.955,0,0,0-.5,1.407v4.126a1.811,1.811,0,0,1-.128.776.877.877,0,0,1-1.483,0,1.811,1.811,0,0,1-.128-.776v-6.4a1.68,1.68,0,0,1,.153-.827.787.787,0,0,1,.716-.367.809.809,0,0,1,.708.341A1.213,1.213,0,0,1,1342.866,9.159Z"/>
      <path id="Tracé_16" data-name="Tracé 16" d="M1348,14.572a8,8,0,0,1-.208-1.994,8.008,8.008,0,0,1,.208-1.995,3.145,3.145,0,0,1,.806-1.407,3.772,3.772,0,0,1,5.166,0,3.213,3.213,0,0,1,.8,1.411,7.861,7.861,0,0,1,.213,1.991,7.853,7.853,0,0,1-.213,1.99,3.207,3.207,0,0,1-.8,1.411,3.772,3.772,0,0,1-5.166,0A3.145,3.145,0,0,1,1348,14.572Zm1.531-1.994a7.166,7.166,0,0,0,.119,1.423,1.8,1.8,0,0,0,.477.938,1.859,1.859,0,0,0,2.524,0,1.811,1.811,0,0,0,.477-.938,7.24,7.24,0,0,0,.119-1.423,7.271,7.271,0,0,0-.119-1.42,1.816,1.816,0,0,0-.477-.942,1.859,1.859,0,0,0-2.524,0,1.809,1.809,0,0,0-.477.942A7.2,7.2,0,0,0,1349.533,12.578Z"/>
      <path id="Tracé_17" data-name="Tracé 17" d="M1311.028,29.634v-9.9a1.793,1.793,0,0,1,.128-.776.877.877,0,0,1,1.483,0,1.81,1.81,0,0,1,.128.776v3.247a2.55,2.55,0,0,1,.993-.754,3.4,3.4,0,0,1,1.274-.217,2.83,2.83,0,0,1,2.1.767,2.917,2.917,0,0,1,.763,1.479,10.558,10.558,0,0,1,.192,2.169,10.676,10.676,0,0,1-.192,2.183,2.922,2.922,0,0,1-.763,1.483,2.858,2.858,0,0,1-2.114.767,3.315,3.315,0,0,1-1.257-.221,2.631,2.631,0,0,1-1-.768,1.112,1.112,0,0,1-.153.614.808.808,0,0,1-.708.341.786.786,0,0,1-.716-.366A1.684,1.684,0,0,1,1311.028,29.634Zm5.285-2.306q.035-.379.034-.891t-.034-.891a4.223,4.223,0,0,0-.145-.771,1.8,1.8,0,0,0-.3-.635,1.443,1.443,0,0,0-.52-.4,1.806,1.806,0,0,0-.788-.158,1.838,1.838,0,0,0-.793.158,1.434,1.434,0,0,0-.524.4,1.8,1.8,0,0,0-.3.635,4.223,4.223,0,0,0-.145.771q-.034.38-.034.891t.034.891a4.224,4.224,0,0,0,.145.771,1.806,1.806,0,0,0,.3.635,1.434,1.434,0,0,0,.524.4,1.838,1.838,0,0,0,.793.158,1.806,1.806,0,0,0,.788-.158,1.443,1.443,0,0,0,.52-.4,1.8,1.8,0,0,0,.3-.635A4.224,4.224,0,0,0,1316.313,27.328Z"/>
      <path id="Tracé_18" data-name="Tracé 18" d="M1325.63,27.383V23.232a1.808,1.808,0,0,1,.128-.776.877.877,0,0,1,1.483,0,1.808,1.808,0,0,1,.128.776v6.4a1.684,1.684,0,0,1-.153.827.787.787,0,0,1-.716.366.809.809,0,0,1-.708-.341,1.084,1.084,0,0,1-.153-.571,3,3,0,0,1-2.277.946,2.934,2.934,0,0,1-2.131-.784,3.246,3.246,0,0,1-.869-2.438V23.232a1.8,1.8,0,0,1,.128-.776.877.877,0,0,1,1.483,0,1.81,1.81,0,0,1,.128.776v4.151a1.935,1.935,0,0,0,.481,1.437,1.72,1.72,0,0,0,1.258.473,1.784,1.784,0,0,0,1.287-.482A1.889,1.889,0,0,0,1325.63,27.383Z"/>
      <path id="Tracé_19" data-name="Tracé 19" d="M1332.918,30.861a5.242,5.242,0,0,1-3.009-.784.9.9,0,0,1-.477-.725.735.735,0,0,1,.281-.6.7.7,0,0,1,.478-.179,1.268,1.268,0,0,1,.647.247,3.761,3.761,0,0,0,2.089.579,2.661,2.661,0,0,0,1.385-.311,1,1,0,0,0,.516-.908q0-.912-1.168-1.022l-1.389-.128q-2.557-.231-2.558-2.37a2.311,2.311,0,0,1,.929-1.944,3.75,3.75,0,0,1,2.336-.707,5.443,5.443,0,0,1,2.327.477,1.941,1.941,0,0,1,.563.367.722.722,0,0,1,.162.477.735.735,0,0,1-.213.511.7.7,0,0,1-.512.222,1.492,1.492,0,0,1-.562-.179,4.109,4.109,0,0,0-1.8-.452,1.847,1.847,0,0,0-1.151.311.993.993,0,0,0-.4.823.844.844,0,0,0,.3.7,1.654,1.654,0,0,0,.9.286l1.364.128q2.565.247,2.566,2.438a2.338,2.338,0,0,1-1,2.024A4.372,4.372,0,0,1,1332.918,30.861Z"/>
    </g>
    <circle id="Ellipse_1" data-name="Ellipse 1" cx="1.68" cy="1.68" r="1.68" transform="translate(1340.318 25.31)"/>
    <path id="Tracé_20" data-name="Tracé 20" d="M1283.617,33.054l-.019,0a5.771,5.771,0,0,1-1.284-.3,5.59,5.59,0,0,1-2.7-2.221c-.769-1.158-1.189-5.775-1.73-7.045-.174-.408-.407-.846-.922-.785a.78.78,0,0,0-.688.756v.525c0,.078,0,.153,0,.231a5.144,5.144,0,0,1-10.289,0V12.177a7.178,7.178,0,0,1,7.154-6.569,7.369,7.369,0,0,1,6.486,4.144l4.04,8.529h0a.758.758,0,0,0,1.372,0h0l4.039-8.529a7.37,7.37,0,0,1,6.486-4.144,7.178,7.178,0,0,1,7.154,6.569V35.76a5.144,5.144,0,0,1-10.288,0c0-.078,0-.154,0-.231V23.46a.78.78,0,0,0-.689-.756c-.515-.061-.747.377-.921.785-.541,1.27-.961,5.887-1.73,7.045a5.588,5.588,0,0,1-2.7,2.221,5.763,5.763,0,0,1-1.283.3l-.019,0A7.407,7.407,0,0,1,1283.617,33.054Z"/>
    <path id="Tracé_21" data-name="Tracé 21" d="M1271.082,30.7a5.093,5.093,0,1,0,5.093,5.093A5.093,5.093,0,0,0,1271.082,30.7Z"/>
  </g>
</svg>
